<svg xmlns="http://www.w3.org/2000/svg" viewBox="0 0 1600 1300" font-family="Calibri, 'Segoe UI', Arial, sans-serif">
  <defs>
    <pattern id="grid" width="20" height="20" patternUnits="userSpaceOnUse">
      <path d="M 20 0 L 0 0 0 20" fill="none" stroke="#e8edf2" stroke-width="0.3"/>
    </pattern>
    <linearGradient id="cfZone" x1="0" y1="0" x2="0" y2="1">
      <stop offset="0%" stop-color="#FFF8E1"/>
      <stop offset="100%" stop-color="#FFFDF5"/>
    </linearGradient>
    <linearGradient id="xiidZone" x1="0" y1="0" x2="0" y2="1">
      <stop offset="0%" stop-color="#FCE4EC"/>
      <stop offset="100%" stop-color="#FFF5F8"/>
    </linearGradient>
    <linearGradient id="hetznerZone" x1="0" y1="0" x2="0" y2="1">
      <stop offset="0%" stop-color="#E3F2FD"/>
      <stop offset="100%" stop-color="#F5FAFF"/>
    </linearGradient>
    <linearGradient id="onpremZone" x1="0" y1="0" x2="0" y2="1">
      <stop offset="0%" stop-color="#E8F5E9"/>
      <stop offset="100%" stop-color="#F5FFF6"/>
    </linearGradient>
    <linearGradient id="cicdZone" x1="0" y1="0" x2="0" y2="1">
      <stop offset="0%" stop-color="#EDE7F6"/>
      <stop offset="100%" stop-color="#F8F5FF"/>
    </linearGradient>
    <linearGradient id="aiZone" x1="0" y1="0" x2="0" y2="1">
      <stop offset="0%" stop-color="#E8EAF6"/>
      <stop offset="100%" stop-color="#F5F6FF"/>
    </linearGradient>
    <filter id="boxShadow" x="-2%" y="-2%" width="104%" height="108%">
      <feDropShadow dx="1" dy="2" stdDeviation="2.5" flood-color="#9e9e9e" flood-opacity="0.25"/>
    </filter>
    <filter id="glowRed">
      <feDropShadow dx="0" dy="0" stdDeviation="3" flood-color="#E53935" flood-opacity="0.5"/>
    </filter>
    <marker id="arrOrange" markerWidth="10" markerHeight="7" refX="10" refY="3.5" orient="auto">
      <path d="M0,0 L10,3.5 L0,7 Z" fill="#E65100"/>
    </marker>
    <marker id="arrRed" markerWidth="10" markerHeight="7" refX="10" refY="3.5" orient="auto">
      <path d="M0,0 L10,3.5 L0,7 Z" fill="#C62828"/>
    </marker>
    <marker id="arrBlue" markerWidth="10" markerHeight="7" refX="10" refY="3.5" orient="auto">
      <path d="M0,0 L10,3.5 L0,7 Z" fill="#1565C0"/>
    </marker>
    <marker id="arrGreen" markerWidth="10" markerHeight="7" refX="10" refY="3.5" orient="auto">
      <path d="M0,0 L10,3.5 L0,7 Z" fill="#2E7D32"/>
    </marker>
    <marker id="arrPurple" markerWidth="10" markerHeight="7" refX="10" refY="3.5" orient="auto">
      <path d="M0,0 L10,3.5 L0,7 Z" fill="#6A1B9A"/>
    </marker>
    <marker id="arrIndigo" markerWidth="10" markerHeight="7" refX="10" refY="3.5" orient="auto">
      <path d="M0,0 L10,3.5 L0,7 Z" fill="#283593"/>
    </marker>
  </defs>

  <!-- BACKGROUND -->
  <rect width="1600" height="1300" fill="#FAFBFD"/>
  <rect width="1600" height="1300" fill="url(#grid)"/>
  <rect x="8" y="8" width="1584" height="1284" rx="2" fill="none" stroke="#BDBDBD" stroke-width="1"/>

  <!-- TITLE BLOCK -->
  <rect x="30" y="15" width="1540" height="58" rx="4" fill="#1B2A4A" stroke="#0D1B2E" stroke-width="1"/>
  <text x="50" y="42" fill="#FFFFFF" font-size="18" font-weight="700" letter-spacing="0.5">ForgeComply 360 + Xiid Terniion — Integrated Security Architecture</text>
  <text x="50" y="62" fill="#90A4AE" font-size="10">Forge Cyber Defense  |  Zero Knowledge Networking  |  SealedTunnel™ Integration  |  February 2026</text>
  <text x="1560" y="50" text-anchor="end" fill="#E53935" font-size="11" font-weight="700">🔒 ALL TUNNELS SEALED</text>

  <!-- ===================== ZONE 1: XIID TERNIION CONTROL PLANE ===================== -->
  <rect x="30" y="85" width="1540" height="110" rx="6" fill="url(#xiidZone)" stroke="#E53935" stroke-width="2"/>
  <rect x="30" y="85" width="1540" height="28" rx="6" fill="#E53935" fill-opacity="0.15"/>
  <rect x="42" y="93" width="12" height="12" rx="2" fill="#E53935"/>
  <text x="62" y="104" fill="#C62828" font-size="11" font-weight="700" letter-spacing="1">XIID TERNIION CONTROL PLANE  —  Zero Knowledge Networking  |  SealedTunnel™  |  Triple-Layer Quantum-Resistant Encryption</text>
  <text x="1560" y="104" text-anchor="end" fill="#AD1457" font-size="9">All Inbound Ports Closed · Outbound-Only · Process-Isolated</text>

  <!-- Xiid SSO/Auth -->
  <rect x="50" y="120" width="220" height="68" rx="5" fill="#fff" stroke="#E53935" stroke-width="1.5" filter="url(#boxShadow)"/>
  <rect x="50" y="120" width="220" height="24" rx="5" fill="#C62828"/>
  <text x="65" y="136" fill="#fff" font-size="10" font-weight="700">Xiid SSO / Zero-Knowledge Auth</text>
  <text x="65" y="155" fill="#546E7A" font-size="8.5">Passwordless · NIST 800-63-3 AAL3</text>
  <text x="65" y="170" fill="#546E7A" font-size="8.5">No credentials stored · ZKP-based</text>
  <text x="255" y="158" text-anchor="end" fill="#E53935" font-size="16">🔐</text>

  <!-- Xiid SealedTunnel Broker -->
  <rect x="295" y="120" width="230" height="68" rx="5" fill="#fff" stroke="#E53935" stroke-width="1.5" filter="url(#boxShadow)"/>
  <rect x="295" y="120" width="230" height="24" rx="5" fill="#C62828"/>
  <text x="310" y="136" fill="#fff" font-size="10" font-weight="700">SealedTunnel™ Broker</text>
  <text x="310" y="155" fill="#546E7A" font-size="8.5">Kyber KEX · Dilithium Signatures</text>
  <text x="310" y="170" fill="#546E7A" font-size="8.5">Process-to-process isolation</text>
  <text x="515" y="158" text-anchor="end" fill="#E53935" font-size="16">🛡</text>

  <!-- Xiid Multi-Cloud Orchestration -->
  <rect x="550" y="120" width="240" height="68" rx="5" fill="#fff" stroke="#E53935" stroke-width="1.5" filter="url(#boxShadow)"/>
  <rect x="550" y="120" width="240" height="24" rx="5" fill="#C62828"/>
  <text x="565" y="136" fill="#fff" font-size="10" font-weight="700">Multi-Cloud Orchestration</text>
  <text x="565" y="155" fill="#546E7A" font-size="8.5">Cloud-agnostic SDN · Cross-domain auth</text>
  <text x="565" y="170" fill="#546E7A" font-size="8.5">Unclassified → Secret → TS isolation</text>
  <text x="780" y="158" text-anchor="end" fill="#E53935" font-size="16">☁</text>

  <!-- Xiid MLOps Protection -->
  <rect x="815" y="120" width="230" height="68" rx="5" fill="#fff" stroke="#E53935" stroke-width="1.5" filter="url(#boxShadow)"/>
  <rect x="815" y="120" width="230" height="24" rx="5" fill="#C62828"/>
  <text x="830" y="136" fill="#fff" font-size="10" font-weight="700">MLOps / AI Inference Protection</text>
  <text x="830" y="155" fill="#546E7A" font-size="8.5">ForgeML + Claude API sealed</text>
  <text x="830" y="170" fill="#546E7A" font-size="8.5">RAG knowledge base poisoning prevention</text>
  <text x="1035" y="158" text-anchor="end" fill="#E53935" font-size="16">🤖</text>

  <!-- Xiid Agentic AI -->
  <rect x="1070" y="120" width="230" height="68" rx="5" fill="#fff" stroke="#E53935" stroke-width="1.5" filter="url(#boxShadow)"/>
  <rect x="1070" y="120" width="230" height="24" rx="5" fill="#C62828"/>
  <text x="1085" y="136" fill="#fff" font-size="10" font-weight="700">Agentic AI Isolation</text>
  <text x="1085" y="155" fill="#546E7A" font-size="8.5">ForgeRedOps 24-agent process isolation</text>
  <text x="1085" y="170" fill="#546E7A" font-size="8.5">Cross-agent contamination prevention</text>
  <text x="1290" y="158" text-anchor="end" fill="#E53935" font-size="16">🕵</text>

  <!-- Xiid SIEM Integration -->
  <rect x="1325" y="120" width="230" height="68" rx="5" fill="#fff" stroke="#E53935" stroke-width="1.5" filter="url(#boxShadow)"/>
  <rect x="1325" y="120" width="230" height="24" rx="5" fill="#C62828"/>
  <text x="1340" y="136" fill="#fff" font-size="10" font-weight="700">Agent Audit &amp; SIEM Integration</text>
  <text x="1340" y="155" fill="#546E7A" font-size="8.5">Cryptographic proof of activity</text>
  <text x="1340" y="170" fill="#546E7A" font-size="8.5">Non-repudiable audit trail</text>
  <text x="1545" y="158" text-anchor="end" fill="#E53935" font-size="16">📋</text>

  <!-- ===================== ZONE 2: CLOUDFLARE EDGE ===================== -->
  <rect x="30" y="210" width="1100" height="185" rx="6" fill="url(#cfZone)" stroke="#F9A825" stroke-width="1.5"/>
  <rect x="30" y="210" width="1100" height="26" rx="6" fill="#F9A825" fill-opacity="0.15"/>
  <rect x="42" y="218" width="12" height="12" rx="2" fill="#F9A825"/>
  <text x="62" y="229" fill="#E65100" font-size="11" font-weight="700" letter-spacing="0.8">CLOUDFLARE EDGE NETWORK  —  ForgeComply 360 Core Platform</text>
  <text x="1120" y="229" text-anchor="end" fill="#BF360C" font-size="9">Workers + Pages + D1 + R2 + KV</text>

  <!-- API Workers -->
  <rect x="50" y="248" width="270" height="132" rx="5" fill="#fff" stroke="#F9A825" stroke-width="1.2" filter="url(#boxShadow)"/>
  <rect x="50" y="248" width="270" height="24" rx="5" fill="#F9A825"/>
  <text x="65" y="264" fill="#fff" font-size="10" font-weight="700">API Workers (forge-api)</text>
  <text x="305" y="264" text-anchor="end" fill="#FFF8E1" font-size="8">Cloudflare Workers</text>
  <text x="65" y="285" fill="#546E7A" font-size="8.5">Hono Framework · 130+ REST endpoints</text>
  <text x="65" y="300" fill="#37474F" font-size="8" font-family="Consolas,monospace">POST /api/v1/scanner/heartbeat</text>
  <text x="65" y="314" fill="#37474F" font-size="8" font-family="Consolas,monospace">GET  /api/v1/scanner/tasks/next</text>
  <text x="65" y="328" fill="#37474F" font-size="8" font-family="Consolas,monospace">POST /api/v1/oscal/ssp</text>
  <text x="65" y="342" fill="#C62828" font-size="8" font-weight="600">🔒 X-Scanner-Key via SealedTunnel</text>
  <text x="65" y="356" fill="#C62828" font-size="8" font-weight="600">🔒 Service-to-service mTLS sealed</text>

  <!-- Dashboard -->
  <rect x="345" y="248" width="215" height="80" rx="5" fill="#fff" stroke="#F9A825" stroke-width="1.2" filter="url(#boxShadow)"/>
  <rect x="345" y="248" width="215" height="24" rx="5" fill="#F9A825"/>
  <text x="360" y="264" fill="#fff" font-size="10" font-weight="700">Dashboard (forge-platform)</text>
  <text x="360" y="285" fill="#546E7A" font-size="8.5">React 18 + TailwindCSS</text>
  <text x="360" y="300" fill="#546E7A" font-size="8.5">app.forgecomply360.com</text>
  <text x="360" y="315" fill="#C62828" font-size="8" font-weight="600">🔒 Xiid SSO enforced · Zero creds</text>

  <!-- D1 + R2 + KV -->
  <rect x="345" y="342" width="215" height="50" rx="5" fill="#fff" stroke="#FFB74D" stroke-width="1" filter="url(#boxShadow)"/>
  <rect x="345" y="342" width="215" height="20" rx="5" fill="#FFB74D"/>
  <text x="452" y="356" text-anchor="middle" fill="#fff" font-size="9" font-weight="700">D1 · R2 Evidence Vault · KV</text>
  <text x="360" y="374" fill="#546E7A" font-size="8">forge-production · SHA-256 integrity · Sessions</text>

  <!-- ComplianceFoundry / OSCAL -->
  <rect x="585" y="248" width="210" height="80" rx="5" fill="#fff" stroke="#F9A825" stroke-width="1.2" filter="url(#boxShadow)"/>
  <rect x="585" y="248" width="210" height="24" rx="5" fill="#F57C00"/>
  <text x="600" y="264" fill="#fff" font-size="10" font-weight="700">ComplianceFoundry™</text>
  <text x="600" y="285" fill="#546E7A" font-size="8.5">OSCAL 1.1.2 · SSP/SAP/SAR/POA&amp;M</text>
  <text x="600" y="300" fill="#546E7A" font-size="8.5">eMASS · CSAM · Xacta export</text>
  <text x="600" y="315" fill="#C62828" font-size="8" font-weight="600">🔒 Artifact delivery via SealedTunnel</text>

  <!-- ControlPulse + RMF -->
  <rect x="585" y="342" width="210" height="50" rx="5" fill="#fff" stroke="#FFB74D" stroke-width="1" filter="url(#boxShadow)"/>
  <rect x="585" y="342" width="210" height="20" rx="5" fill="#FFB74D"/>
  <text x="690" y="356" text-anchor="middle" fill="#fff" font-size="9" font-weight="700">ControlPulse™ CCM · RMF Manager</text>
  <text x="600" y="374" fill="#546E7A" font-size="8">2,847 tests/day · Drift detection · RMF 7-phase</text>

  <!-- RiskForge + VendorGuard -->
  <rect x="820" y="248" width="290" height="145" rx="5" fill="#fff" stroke="#F9A825" stroke-width="1.2" filter="url(#boxShadow)"/>
  <rect x="820" y="248" width="290" height="24" rx="5" fill="#E65100"/>
  <text x="835" y="264" fill="#fff" font-size="10" font-weight="700">RiskForge™ ERM + VendorGuard™ TPRM</text>
  <text x="835" y="285" fill="#546E7A" font-size="8.5">127 active risks · $4.2M quantified exposure</text>
  <text x="835" y="300" fill="#546E7A" font-size="8.5">FAIR methodology · 5×5 heat maps</text>
  <text x="835" y="315" fill="#546E7A" font-size="8.5">Vendor questionnaires · SIG Lite · CAIQ</text>
  <text x="835" y="330" fill="#C62828" font-size="8" font-weight="600">🔒 Vendor comms sealed · No inbound exposure</text>
  <text x="835" y="345" fill="#C62828" font-size="8" font-weight="600">🔒 Third-party data lakes protected via SealedTunnel</text>
  <text x="835" y="360" fill="#546E7A" font-size="8">POA&amp;M auto-gen · Milestone tracking · FedRAMP reporting</text>
  <text x="835" y="375" fill="#546E7A" font-size="8">Jira · ServiceNow integration</text>

  <!-- ===================== ZONE 3: AI / FORGEML ZONE ===================== -->
  <rect x="1145" y="210" width="425" height="340" rx="6" fill="url(#aiZone)" stroke="#3949AB" stroke-width="1.5"/>
  <rect x="1145" y="210" width="425" height="26" rx="6" fill="#3949AB" fill-opacity="0.15"/>
  <rect x="1157" y="218" width="12" height="12" rx="2" fill="#3949AB"/>
  <text x="1177" y="229" fill="#1A237E" font-size="11" font-weight="700" letter-spacing="0.8">AI / FORGEML ENGINE  —  Inference Sealed + RAG Protected</text>

  <!-- ForgeML / Claude API -->
  <rect x="1165" y="248" width="385" height="90" rx="5" fill="#fff" stroke="#3949AB" stroke-width="1.5" filter="url(#boxShadow)"/>
  <rect x="1165" y="248" width="385" height="24" rx="5" fill="#3949AB"/>
  <text x="1180" y="264" fill="#fff" font-size="10" font-weight="700">ForgeML Engine  (Cloud: Claude API · On-Prem: Ollama/Llama 3)</text>
  <text x="1180" y="285" fill="#546E7A" font-size="8.5">Control narrative NLP · Evidence-to-control mapping (94% acc)</text>
  <text x="1180" y="298" fill="#546E7A" font-size="8.5">Vulnerability correlation · Gap analysis · SSP auto-generation</text>
  <text x="1180" y="313" fill="#C62828" font-size="8.5" font-weight="700">🔒 All Claude API calls wrapped in SealedTunnel  |  On-prem Ollama: zero inbound ports</text>
  <text x="1180" y="326" fill="#C62828" font-size="8.5" font-weight="700">🔒 Model weights protected · No inference endpoint exposure · Quantum-secure in transit</text>

  <!-- Vector DB / RAG -->
  <rect x="1165" y="352" width="180" height="90" rx="5" fill="#fff" stroke="#5C6BC0" stroke-width="1.2" filter="url(#boxShadow)"/>
  <rect x="1165" y="352" width="180" height="24" rx="5" fill="#5C6BC0"/>
  <text x="1180" y="368" fill="#fff" font-size="10" font-weight="700">Control Mapping RAG</text>
  <text x="1180" y="388" fill="#546E7A" font-size="8.5">Vector DB · 1,189 NIST controls</text>
  <text x="1180" y="401" fill="#546E7A" font-size="8.5">Cross-framework embeddings</text>
  <text x="1180" y="416" fill="#C62828" font-size="8" font-weight="600">🔒 Knowledge base poisoning</text>
  <text x="1180" y="427" fill="#C62828" font-size="8" font-weight="600">  prevention via SealedTunnel</text>

  <!-- AI Governance -->
  <rect x="1370" y="352" width="180" height="90" rx="5" fill="#fff" stroke="#5C6BC0" stroke-width="1.2" filter="url(#boxShadow)"/>
  <rect x="1370" y="352" width="180" height="24" rx="5" fill="#5C6BC0"/>
  <text x="1385" y="368" fill="#fff" font-size="10" font-weight="700">ForgeAI Govern™</text>
  <text x="1385" y="388" fill="#546E7A" font-size="8.5">NIST AI RMF · FDA SaMD</text>
  <text x="1385" y="401" fill="#546E7A" font-size="8.5">Bias/drift monitoring</text>
  <text x="1385" y="416" fill="#C62828" font-size="8" font-weight="600">🔒 AI asset registry sealed</text>
  <text x="1385" y="427" fill="#C62828" font-size="8" font-weight="600">  Incident auto-suspend</text>

  <!-- ===================== ZONE 4: FORGESCAN / ASHBURN VA ===================== -->
  <rect x="30" y="410" width="720" height="220" rx="6" fill="url(#hetznerZone)" stroke="#1565C0" stroke-width="1.5"/>
  <rect x="30" y="410" width="720" height="26" rx="6" fill="#1565C0" fill-opacity="0.12"/>
  <rect x="42" y="418" width="12" height="12" rx="2" fill="#1E88E5"/>
  <text x="62" y="429" fill="#0D47A1" font-size="11" font-weight="700" letter-spacing="0.8">FORGESCAN 360 ENGINE  —  Ashburn VA / Hetzner Compute Nodes</text>
  <text x="740" y="429" text-anchor="end" fill="#1565C0" font-size="9">Rust-based · linux/amd64 + arm64</text>

  <!-- Scanner Agent -->
  <rect x="50" y="448" width="200" height="165" rx="5" fill="#fff" stroke="#1E88E5" stroke-width="1.2" filter="url(#boxShadow)"/>
  <rect x="50" y="448" width="200" height="24" rx="5" fill="#1565C0"/>
  <text x="65" y="464" fill="#fff" font-size="10" font-weight="700">ForgeScan Engine (Rust)</text>
  <text x="65" y="485" fill="#546E7A" font-size="8.5">forgescan-scanner binary</text>
  <text x="65" y="498" fill="#37474F" font-size="8">Network discovery · Port scan</text>
  <text x="65" y="511" fill="#37474F" font-size="8">CVE matching · NVD database</text>
  <text x="65" y="524" fill="#37474F" font-size="8">CIS Benchmarks · DISA STIGs</text>
  <text x="65" y="537" fill="#37474F" font-size="8">OWASP Top 10 · Cloud misconfig</text>
  <text x="65" y="552" fill="#C62828" font-size="8" font-weight="600">🔒 STLink outbound :443</text>
  <text x="65" y="565" fill="#C62828" font-size="8" font-weight="600">🔒 No public IP / inbound ports</text>
  <text x="65" y="580" fill="#C62828" font-size="8" font-weight="600">🔒 127.0.0.5 loopback proxy</text>

  <!-- Connector Fleet -->
  <rect x="275" y="448" width="200" height="165" rx="5" fill="#fff" stroke="#1E88E5" stroke-width="1.2" filter="url(#boxShadow)"/>
  <rect x="275" y="448" width="200" height="24" rx="5" fill="#1565C0"/>
  <text x="290" y="464" fill="#fff" font-size="10" font-weight="700">Connector Fleet</text>
  <text x="290" y="485" fill="#546E7A" font-size="8.5">AWS · Azure · GCP integrations</text>
  <text x="290" y="498" fill="#37474F" font-size="8">CloudTrail · GuardDuty · IAM</text>
  <text x="290" y="511" fill="#37474F" font-size="8">Sentinel · Defender · Activity</text>
  <text x="290" y="524" fill="#37474F" font-size="8">CrowdStrike · SentinelOne · EDR</text>
  <text x="290" y="537" fill="#37474F" font-size="8">Splunk · QRadar · Datadog SIEM</text>
  <text x="290" y="552" fill="#C62828" font-size="8" font-weight="600">🔒 All cloud connectors outbound-only</text>
  <text x="290" y="565" fill="#C62828" font-size="8" font-weight="600">🔒 No cloud provider inbound access</text>
  <text x="290" y="580" fill="#C62828" font-size="8" font-weight="600">🔒 Cross-cloud SDN via Terniion</text>

  <!-- Nessus Import -->
  <rect x="500" y="448" width="230" height="165" rx="5" fill="#fff" stroke="#1E88E5" stroke-width="1.2" filter="url(#boxShadow)"/>
  <rect x="500" y="448" width="230" height="24" rx="5" fill="#0D47A1"/>
  <text x="515" y="464" fill="#fff" font-size="10" font-weight="700">Nessus Integration (v1.0)</text>
  <text x="515" y="485" fill="#546E7A" font-size="8.5">POST /api/v1/scans/import</text>
  <text x="515" y="498" fill="#37474F" font-size="8">.nessus XML parser · SHA-256 dedup</text>
  <text x="515" y="511" fill="#37474F" font-size="8">Plugin family → NIST 800-53 mapping</text>
  <text x="515" y="524" fill="#37474F" font-size="8">CVE → CWE → control correlation</text>
  <text x="515" y="537" fill="#37474F" font-size="8">Bulk POA&amp;M generation · FedRAMP SLAs</text>
  <text x="515" y="552" fill="#C62828" font-size="8" font-weight="600">🔒 File upload secured via SealedTunnel</text>
  <text x="515" y="565" fill="#C62828" font-size="8" font-weight="600">🔒 Tenable SC connectivity sealed</text>
  <text x="515" y="580" fill="#C62828" font-size="8" font-weight="600">🔒 scan_imports SHA-256 audit trail</text>

  <!-- ===================== ZONE 5: FORGEREDOPS ===================== -->
  <rect x="770" y="410" width="795" height="220" rx="6" fill="#FFF3E0" stroke="#E65100" stroke-width="1.5"/>
  <rect x="770" y="410" width="795" height="26" rx="6" fill="#E65100" fill-opacity="0.12"/>
  <rect x="782" y="418" width="12" height="12" rx="2" fill="#E65100"/>
  <text x="802" y="429" fill="#BF360C" font-size="11" font-weight="700" letter-spacing="0.8">FORGEREDOPS™  —  24 Autonomous AI Pen-Test Agents  |  ForgeSOC  |  Xiid Agent Isolation</text>

  <!-- Agent Group -->
  <rect x="790" y="448" width="320" height="165" rx="5" fill="#fff" stroke="#E65100" stroke-width="1.2" filter="url(#boxShadow)"/>
  <rect x="790" y="448" width="320" height="24" rx="5" fill="#E65100"/>
  <text x="805" y="464" fill="#fff" font-size="10" font-weight="700">24 AI Autonomous Agents</text>
  <text x="805" y="485" fill="#546E7A" font-size="8.5">Web App · API Security · Cloud Config</text>
  <text x="805" y="498" fill="#37474F" font-size="8">OWASP Top 10 · Injection · XSS · CSRF</text>
  <text x="805" y="511" fill="#37474F" font-size="8">Auth bypass · Rate limiting · Input validation</text>
  <text x="805" y="524" fill="#37474F" font-size="8">AWS/Azure/GCP misconfig · IAM policies</text>
  <text x="805" y="537" fill="#37474F" font-size="8">Port scan · Service enum · Lateral movement</text>
  <text x="805" y="552" fill="#C62828" font-size="8.5" font-weight="700">🔒 Each agent: dedicated SealedTunnel channel</text>
  <text x="805" y="565" fill="#C62828" font-size="8.5" font-weight="700">🔒 Cross-agent contamination: prevented</text>
  <text x="805" y="580" fill="#C62828" font-size="8.5" font-weight="700">🔒 Agent memory stores: process-isolated access</text>

  <!-- ForgeSOC -->
  <rect x="1130" y="448" width="220" height="165" rx="5" fill="#fff" stroke="#E65100" stroke-width="1.2" filter="url(#boxShadow)"/>
  <rect x="1130" y="448" width="220" height="24" rx="5" fill="#BF360C"/>
  <text x="1145" y="464" fill="#fff" font-size="10" font-weight="700">ForgeSOC</text>
  <text x="1145" y="485" fill="#546E7A" font-size="8.5">24/7 threat detection · Incident response</text>
  <text x="1145" y="498" fill="#37474F" font-size="8">Alert management · SIEM correlation</text>
  <text x="1145" y="511" fill="#37474F" font-size="8">Playbook automation · Escalation</text>
  <text x="1145" y="524" fill="#37474F" font-size="8">Splunk · Sentinel · QRadar feeds</text>
  <text x="1145" y="537" fill="#C62828" font-size="8" font-weight="600">🔒 SIEM feeds via sealed tunnels</text>
  <text x="1145" y="552" fill="#C62828" font-size="8" font-weight="600">🔒 Cryptographic proof of agent activity</text>
  <text x="1145" y="565" fill="#C62828" font-size="8" font-weight="600">🔒 Anomaly baseline: Xiid audit trail</text>

  <!-- Auto-POA&M -->
  <rect x="1370" y="448" width="185" height="165" rx="5" fill="#fff" stroke="#FF8F00" stroke-width="1" filter="url(#boxShadow)"/>
  <rect x="1370" y="448" width="185" height="24" rx="5" fill="#FF8F00"/>
  <text x="1385" y="464" fill="#fff" font-size="10" font-weight="700">Auto-POA&amp;M</text>
  <text x="1385" y="485" fill="#546E7A" font-size="8.5">Finding → POA&amp;M pipeline</text>
  <text x="1385" y="498" fill="#37474F" font-size="8">Critical: 15-day SLA</text>
  <text x="1385" y="511" fill="#37474F" font-size="8">High: 30-day SLA</text>
  <text x="1385" y="524" fill="#37474F" font-size="8">Medium: 90-day SLA</text>
  <text x="1385" y="537" fill="#37474F" font-size="8">5-milestone template</text>
  <text x="1385" y="552" fill="#C62828" font-size="8" font-weight="600">🔒 Findings delivered</text>
  <text x="1385" y="563" fill="#C62828" font-size="8" font-weight="600">  via SealedTunnel</text>
  <text x="1385" y="576" fill="#C62828" font-size="8" font-weight="600">🔒 Evidence Vault R2</text>
  <text x="1385" y="587" fill="#C62828" font-size="8" font-weight="600">  sealed + SHA-256</text>

  <!-- ===================== ZONE 6: ON-PREMISES / AIR-GAPPED ===================== -->
  <rect x="30" y="645" width="900" height="215" rx="6" fill="url(#onpremZone)" stroke="#388E3C" stroke-width="1.5"/>
  <rect x="30" y="645" width="900" height="26" rx="6" fill="#388E3C" fill-opacity="0.12"/>
  <rect x="42" y="653" width="12" height="12" rx="2" fill="#43A047"/>
  <text x="62" y="664" fill="#1B5E20" font-size="11" font-weight="700" letter-spacing="0.8">ON-PREMISES / AIR-GAPPED DEPLOYMENT  —  CMMC Level 3 · DoD IL4/IL5 · Classified</text>
  <text x="920" y="664" text-anchor="end" fill="#2E7D32" font-size="9">Docker Compose / Kubernetes · No external runtime deps</text>

  <!-- On-prem scanner -->
  <rect x="50" y="683" width="195" height="160" rx="5" fill="#fff" stroke="#43A047" stroke-width="1.2" filter="url(#boxShadow)"/>
  <rect x="50" y="683" width="195" height="24" rx="5" fill="#388E3C"/>
  <text x="65" y="699" fill="#fff" font-size="10" font-weight="700">On-Prem Scanner Agent</text>
  <text x="65" y="720" fill="#546E7A" font-size="8.5">forgescan-agent binary</text>
  <text x="65" y="733" fill="#37474F" font-size="8">Agentless + endpoint agent</text>
  <text x="65" y="746" fill="#37474F" font-size="8">Local NVD database (offline)</text>
  <text x="65" y="759" fill="#37474F" font-size="8">YAML check definitions</text>
  <text x="65" y="772" fill="#37474F" font-size="8">gRPC finding stream</text>
  <text x="65" y="787" fill="#C62828" font-size="8" font-weight="600">🔒 STLink outbound-only</text>
  <text x="65" y="800" fill="#C62828" font-size="8" font-weight="600">🔒 Air-gap: Xiid gateway</text>
  <text x="65" y="813" fill="#C62828" font-size="8" font-weight="600">  on Raspberry Pi / edge</text>
  <text x="65" y="826" fill="#C62828" font-size="8" font-weight="600">🔒 Zero inbound ports</text>

  <!-- On-prem Ollama -->
  <rect x="265" y="683" width="195" height="160" rx="5" fill="#fff" stroke="#43A047" stroke-width="1.2" filter="url(#boxShadow)"/>
  <rect x="265" y="683" width="195" height="24" rx="5" fill="#388E3C"/>
  <text x="280" y="699" fill="#fff" font-size="10" font-weight="700">Local AI (Ollama/Llama 3)</text>
  <text x="280" y="720" fill="#546E7A" font-size="8.5">No external AI dependencies</text>
  <text x="280" y="733" fill="#37474F" font-size="8">On-prem inference for ForgeML</text>
  <text x="280" y="746" fill="#37474F" font-size="8">Control narrative generation</text>
  <text x="280" y="759" fill="#37474F" font-size="8">Replaces Claude API in air-gap</text>
  <text x="280" y="772" fill="#37474F" font-size="8">GPU cluster optional</text>
  <text x="280" y="787" fill="#C62828" font-size="8" font-weight="600">🔒 Inference: zero inbound ports</text>
  <text x="280" y="800" fill="#C62828" font-size="8" font-weight="600">🔒 GPU cluster: process-isolated</text>
  <text x="280" y="813" fill="#C62828" font-size="8" font-weight="600">🔒 Model weights sealed</text>
  <text x="280" y="826" fill="#C62828" font-size="8" font-weight="600">🔒 Training data: SealedTunnel</text>

  <!-- On-prem DB -->
  <rect x="480" y="683" width="195" height="160" rx="5" fill="#fff" stroke="#43A047" stroke-width="1.2" filter="url(#boxShadow)"/>
  <rect x="480" y="683" width="195" height="24" rx="5" fill="#388E3C"/>
  <text x="495" y="699" fill="#fff" font-size="10" font-weight="700">On-Prem Database / Storage</text>
  <text x="495" y="720" fill="#546E7A" font-size="8.5">PostgreSQL · MinIO (S3-compat)</text>
  <text x="495" y="733" fill="#37474F" font-size="8">Redis sessions/cache</text>
  <text x="495" y="746" fill="#37474F" font-size="8">Encrypted backups</text>
  <text x="495" y="759" fill="#37474F" font-size="8">BYOK encryption keys</text>
  <text x="495" y="772" fill="#37474F" font-size="8">Immutable audit logs · 7yr</text>
  <text x="495" y="787" fill="#C62828" font-size="8" font-weight="600">🔒 Data lakes: SealedTunnel</text>
  <text x="495" y="800" fill="#C62828" font-size="8" font-weight="600">🔒 No inbound DB ports</text>
  <text x="495" y="813" fill="#C62828" font-size="8" font-weight="600">🔒 AES-256-GCM at rest</text>
  <text x="495" y="826" fill="#C62828" font-size="8" font-weight="600">🔒 TLS 1.3 in transit sealed</text>

  <!-- Internal Targets -->
  <rect x="695" y="683" width="220" height="160" rx="5" fill="#fff" stroke="#90A4AE" stroke-width="1" filter="url(#boxShadow)"/>
  <rect x="695" y="683" width="220" height="24" rx="5" fill="#78909C"/>
  <text x="805" y="699" text-anchor="middle" fill="#fff" font-size="10" font-weight="600">Internal Targets (RFC1918)</text>
  <text x="710" y="720" fill="#546E7A" font-size="8.5">192.168.x.x · 10.x.x.x · 172.16.x.x</text>
  <text x="710" y="735" fill="#90A4AE" font-size="8">Servers / Switches / Routers</text>
  <text x="710" y="748" fill="#90A4AE" font-size="8">IoT / SCADA / OT systems</text>
  <text x="710" y="761" fill="#90A4AE" font-size="8">Printers / Endpoints</text>
  <text x="710" y="776" fill="#90A4AE" font-size="8">Classified workstations (DoD IL5)</text>
  <text x="710" y="795" fill="#C62828" font-size="8" font-weight="600">🔒 Scanner → targets: internal only</text>
  <text x="710" y="808" fill="#C62828" font-size="8" font-weight="600">🔒 No target internet exposure</text>
  <text x="710" y="821" fill="#C62828" font-size="8" font-weight="600">🔒 Results: encrypted uplink only</text>

  <!-- ===================== ZONE 7: CI/CD ===================== -->
  <rect x="950" y="645" width="620" height="215" rx="6" fill="url(#cicdZone)" stroke="#7E57C2" stroke-width="1.5"/>
  <rect x="950" y="645" width="620" height="26" rx="6" fill="#7E57C2" fill-opacity="0.12"/>
  <rect x="962" y="653" width="12" height="12" rx="2" fill="#7E57C2"/>
  <text x="982" y="664" fill="#6A1B9A" font-size="11" font-weight="700" letter-spacing="0.8">GITHUB CI/CD PIPELINE  —  ForgeOps™ DevSecOps  |  Xiid Runner Protection</text>

  <!-- GitHub Actions -->
  <rect x="970" y="683" width="170" height="160" rx="5" fill="#fff" stroke="#7E57C2" stroke-width="1.2" filter="url(#boxShadow)"/>
  <rect x="970" y="683" width="170" height="24" rx="5" fill="#7E57C2"/>
  <text x="985" y="699" fill="#fff" font-size="10" font-weight="700">GitHub Actions</text>
  <text x="985" y="720" fill="#546E7A" font-size="8.5">Forge-Scan · Forge-Reporter</text>
  <text x="985" y="733" fill="#37474F" font-size="8">ci.yml · build-docker.yml</text>
  <text x="985" y="746" fill="#37474F" font-size="8">release-binaries.yml</text>
  <text x="985" y="759" fill="#37474F" font-size="8">OPA/Rego compliance gates</text>
  <text x="985" y="772" fill="#37474F" font-size="8">SBOM generation + scan</text>
  <text x="985" y="787" fill="#C62828" font-size="8" font-weight="600">🔒 Runners: all inbound closed</text>
  <text x="985" y="800" fill="#C62828" font-size="8" font-weight="600">🔒 No API keys in env vars</text>
  <text x="985" y="813" fill="#C62828" font-size="8" font-weight="600">🔒 Lateral movement: blocked</text>

  <!-- GHCR -->
  <rect x="1160" y="683" width="180" height="160" rx="5" fill="#fff" stroke="#7E57C2" stroke-width="1.2" filter="url(#boxShadow)"/>
  <rect x="1160" y="683" width="180" height="24" rx="5" fill="#7E57C2"/>
  <text x="1175" y="699" fill="#fff" font-size="10" font-weight="700">GHCR · Model Registry</text>
  <text x="1175" y="720" fill="#546E7A" font-size="8.5">ghcr.io/bjay0727-jay/</text>
  <text x="1175" y="733" fill="#37474F" font-size="8">forgescan-scanner images</text>
  <text x="1175" y="746" fill="#37474F" font-size="8">linux/amd64 + linux/arm64</text>
  <text x="1175" y="759" fill="#37474F" font-size="8">ForgeML model artifacts</text>
  <text x="1175" y="772" fill="#37474F" font-size="8">Signed images · SLSA L2</text>
  <text x="1175" y="787" fill="#C62828" font-size="8" font-weight="600">🔒 Registry: zero inbound</text>
  <text x="1175" y="800" fill="#C62828" font-size="8" font-weight="600">🔒 Model weights sealed</text>
  <text x="1175" y="813" fill="#C62828" font-size="8" font-weight="600">🔒 Supply chain: SealedTunnel</text>

  <!-- Releases -->
  <rect x="1360" y="683" width="185" height="160" rx="5" fill="#fff" stroke="#7E57C2" stroke-width="1.2" filter="url(#boxShadow)"/>
  <rect x="1360" y="683" width="185" height="24" rx="5" fill="#512DA8"/>
  <text x="1375" y="699" fill="#fff" font-size="10" font-weight="700">GitHub Releases · Forge-Reporter</text>
  <text x="1375" y="720" fill="#546E7A" font-size="8.5">Static binaries · linux/windows</text>
  <text x="1375" y="733" fill="#37474F" font-size="8">cross-rs · FIPS-validated build</text>
  <text x="1375" y="746" fill="#37474F" font-size="8">Forge-Reporter: OSCAL gen</text>
  <text x="1375" y="759" fill="#37474F" font-size="8">SSP/SAR/SAP automation</text>
  <text x="1375" y="772" fill="#37474F" font-size="8">PDF + Word export</text>
  <text x="1375" y="787" fill="#C62828" font-size="8" font-weight="600">🔒 Deploy: SealedTunnel only</text>
  <text x="1375" y="800" fill="#C62828" font-size="8" font-weight="600">🔒 No credential exposure</text>
  <text x="1375" y="813" fill="#C62828" font-size="8" font-weight="600">🔒 Isolated test environments</text>

  <!-- ===================== FLOW ARROWS ===================== -->
  <!-- Xiid Control Plane → everything (vertical down) -->
  <path d="M 160 195 L 160 248" stroke="#E53935" stroke-width="2" stroke-dasharray="6,3" marker-end="url(#arrRed)"/>
  <path d="M 410 195 L 410 248" stroke="#E53935" stroke-width="2" stroke-dasharray="6,3" marker-end="url(#arrRed)"/>
  <path d="M 690 195 L 690 248" stroke="#E53935" stroke-width="2" stroke-dasharray="6,3" marker-end="url(#arrRed)"/>
  <path d="M 930 195 L 1255 248" stroke="#E53935" stroke-width="1.5" stroke-dasharray="6,3" marker-end="url(#arrRed)"/>
  <path d="M 1185 195 L 1185 410" stroke="#E53935" stroke-width="1.5" stroke-dasharray="6,3" marker-end="url(#arrRed)"/>
  <path d="M 1440 195 L 1440 410" stroke="#E53935" stroke-width="1.5" stroke-dasharray="6,3" marker-end="url(#arrRed)"/>

  <!-- Scanner → CF API (STLink) -->
  <path d="M 150 448 L 150 410 L 140 410 L 140 395" stroke="#C62828" stroke-width="2" stroke-dasharray="7,4" fill="none" marker-end="url(#arrRed)"/>
  <rect x="38" y="395" width="210" height="14" rx="3" fill="#fff" stroke="#EF9A9A" stroke-width="0.5"/>
  <text x="143" y="405" text-anchor="middle" fill="#C62828" font-size="7.5" font-weight="700">🔒 STLink outbound :443 SEALED</text>

  <!-- On-prem → CF (uplink) -->
  <path d="M 363 645 L 363 570 L 185 570 L 185 395" stroke="#C62828" stroke-width="1.8" stroke-dasharray="7,4" fill="none" marker-end="url(#arrRed)"/>
  <rect x="225" y="562" width="195" height="14" rx="3" fill="#fff" stroke="#EF9A9A" stroke-width="0.5"/>
  <text x="322" y="572" text-anchor="middle" fill="#C62828" font-size="7.5" font-weight="700">🔒 Air-gap SealedTunnel SEALED</text>

  <!-- ForgeML → CF API -->
  <path d="M 1255 395 L 1255 395" stroke="#3949AB" stroke-width="1.5" stroke-dasharray="5,3" fill="none"/>
  <path d="M 1165 300 L 1130 300" stroke="#3949AB" stroke-width="1.5" stroke-dasharray="5,3" fill="none" marker-end="url(#arrIndigo)"/>

  <!-- RedOps → CF (findings) -->
  <path d="M 950 535 L 820 535 L 820 395" stroke="#E65100" stroke-width="1.5" stroke-dasharray="5,3" fill="none" marker-end="url(#arrOrange)"/>
  <rect x="835" y="527" width="100" height="14" rx="3" fill="#fff" stroke="#FFCC80" stroke-width="0.5"/>
  <text x="885" y="537" text-anchor="middle" fill="#E65100" font-size="7.5" font-weight="700">findings → POA&amp;M</text>

  <!-- CI/CD → Scanners -->
  <path d="M 1055 683 L 1055 645 L 150 645 L 150 615" stroke="#7E57C2" stroke-width="1.2" stroke-dasharray="4,3" fill="none" marker-end="url(#arrPurple)" opacity="0.7"/>
  <rect x="550" y="638" width="100" height="14" rx="3" fill="#fff" stroke="#CE93D8" stroke-width="0.5"/>
  <text x="600" y="648" text-anchor="middle" fill="#6A1B9A" font-size="7.5" font-weight="700">docker pull / binary</text>

  <!-- ===================== LEGEND ===================== -->
  <rect x="30" y="875" width="1540" height="95" rx="5" fill="#fff" stroke="#BDBDBD" stroke-width="0.8"/>
  <text x="50" y="897" fill="#1B2A4A" font-size="11" font-weight="700">LEGEND — Xiid SealedTunnel™ Integration Points</text>

  <!-- Color boxes -->
  <rect x="50" y="910" width="14" height="14" rx="2" fill="#E53935"/>
  <text x="70" y="921" fill="#546E7A" font-size="9">Xiid Terniion Control</text>

  <rect x="200" y="910" width="14" height="14" rx="2" fill="#F9A825"/>
  <text x="220" y="921" fill="#546E7A" font-size="9">Cloudflare Edge</text>

  <rect x="340" y="910" width="14" height="14" rx="2" fill="#1E88E5"/>
  <text x="360" y="921" fill="#546E7A" font-size="9">ForgeScan / Ashburn VA</text>

  <rect x="490" y="910" width="14" height="14" rx="2" fill="#43A047"/>
  <text x="510" y="921" fill="#546E7A" font-size="9">On-Prem / Air-Gap</text>

  <rect x="630" y="910" width="14" height="14" rx="2" fill="#E65100"/>
  <text x="650" y="921" fill="#546E7A" font-size="9">ForgeRedOps AI Agents</text>

  <rect x="780" y="910" width="14" height="14" rx="2" fill="#3949AB"/>
  <text x="800" y="921" fill="#546E7A" font-size="9">AI / ForgeML Inference</text>

  <rect x="930" y="910" width="14" height="14" rx="2" fill="#7E57C2"/>
  <text x="950" y="921" fill="#546E7A" font-size="9">CI/CD Pipeline</text>

  <!-- Line types -->
  <line x1="1050" y1="917" x2="1100" y2="917" stroke="#E53935" stroke-width="2" stroke-dasharray="6,3"/>
  <text x="1108" y="921" fill="#546E7A" font-size="9">SealedTunnel (outbound-only, triple-encrypted)</text>

  <line x1="1340" y1="917" x2="1390" y2="917" stroke="#E65100" stroke-width="1.5" stroke-dasharray="5,3"/>
  <text x="1398" y="921" fill="#546E7A" font-size="9">HTTPS API / gRPC</text>

  <!-- Key properties -->
  <text x="50" y="945" fill="#78909C" font-size="8.5">KEY PROPERTIES:  All connections outbound-only port 443  ·  No inbound ports on any component  ·  Triple-layer Kyber/Dilithium quantum-secure encryption  ·  Process-level microsegmentation  ·  Zero credentials stored</text>
  <text x="50" y="960" fill="#78909C" font-size="8.5">PROTECTION SCOPE:  ForgeML inference  ·  RAG knowledge base (control mapping vectors)  ·  24 RedOps agents isolated  ·  Evidence Vault  ·  Nessus imports  ·  CI/CD runners  ·  Model weights &amp; registries  ·  Air-gapped on-prem Ollama</text>

  <!-- Sealed badge -->
  <rect x="1450" y="905" width="110" height="38" rx="5" fill="#FFEBEE" stroke="#E53935" stroke-width="1.5"/>
  <text x="1505" y="926" text-anchor="middle" fill="#C62828" font-size="13" font-weight="700">🔒 SEALED</text>
  <text x="1505" y="940" text-anchor="middle" fill="#AD1457" font-size="8">Terniion v1.0</text>
</svg>
